<?xml version="1.0" encoding="utf-8"?>
<!-- Generator: Adobe Illustrator 21.0.0, SVG Export Plug-In . SVG Version: 6.00 Build 0)  -->
<svg version="1.1" id="Layer_1" xmlns="http://www.w3.org/2000/svg" xmlns:xlink="http://www.w3.org/1999/xlink" x="0px" y="0px"
	 width="1400px" height="980px" viewBox="0 0 1400 980" enable-background="new 0 0 1400 980" xml:space="preserve">
<g>
	<rect fill="#FFFFFF" width="1400" height="980"/>
	<g>
		<g>
			<path d="M91.6,417.6c-5.8,0-10.5,4.7-10.5,10.5s4.7,10.5,10.5,10.5c5.8,0,10.5-4.7,10.5-10.5S97.4,417.6,91.6,417.6z M91.6,431.8
				c-2,0-3.7-1.6-3.7-3.7c0-2,1.6-3.7,3.7-3.7c2,0,3.7,1.6,3.7,3.7C95.3,430.1,93.6,431.8,91.6,431.8z"/>
			<path d="M188.9,417.6c-5.8,0-10.5,4.7-10.5,10.5s4.7,10.5,10.5,10.5c5.8,0,10.5-4.7,10.5-10.5S194.7,417.6,188.9,417.6z
				 M188.9,431.8c-2,0-3.7-1.6-3.7-3.7c0-2,1.6-3.7,3.7-3.7c2,0,3.7,1.6,3.7,3.7C192.6,430.1,190.9,431.8,188.9,431.8z"/>
			<path d="M307.5,210.4c-4.2,0-8,2.2-10.2,5.4h-18.1c-0.4,0-0.8,0-1.2,0.1L46.5,257c-1.8,0.3-3.4,1.3-4.4,2.9
				c-1,1.5-1.4,3.4-1.1,5.2l19,99.7h-6.6c-3.8,0-6.8,3.1-6.8,6.8c0,3.8,3.1,6.8,6.8,6.8h14.8c0,0,0,0,0,0c0,0,0,0,0,0h147.5
				c5.2,0,9.4,4.2,9.4,9.4s-4.2,9.4-9.4,9.4H53.4c-3.8,0-6.8,3.1-6.8,6.8s3.1,6.8,6.8,6.8h20.7c-4.3,4.4-7,10.5-7,17.2
				c0,13.5,11,24.5,24.5,24.5s24.5-11,24.5-24.5c0-6.7-2.7-12.7-7-17.2h62.3c-4.3,4.4-7,10.5-7,17.2c0,13.5,11,24.5,24.5,24.5
				c13.5,0,24.5-11,24.5-24.5c0-6.7-2.7-12.7-7-17.2h9.3c12.7,0,23.1-10.4,23.1-23.1c0-11-7.7-20.1-18-22.5L255,233.9l24.9-4.4h17.5
				c2.2,3.3,5.9,5.4,10.2,5.4c6.8,0,12.3-5.5,12.3-12.3C319.8,215.9,314.3,210.4,307.5,210.4z M91.6,443.5
				c-8.5,0-15.4-6.9-15.4-15.4s6.9-15.4,15.4-15.4s15.4,6.9,15.4,15.4S100.1,443.5,91.6,443.5z M188.9,443.5
				c-8.5,0-15.4-6.9-15.4-15.4s6.9-15.4,15.4-15.4c8.5,0,15.4,6.9,15.4,15.4S197.4,443.5,188.9,443.5z M224.2,325.2h-31.9v-34.6
				h40.9L224.2,325.2z M192.3,364.7V332h30.1l-8.5,32.7H192.3z M59.7,290.6h35.7v34.6H66.3L59.7,290.6z M102.2,290.6h40.6v34.6
				h-40.6V290.6z M102.2,283.7V261l40.6-7.2v29.9H102.2z M142.9,332v32.7h-40.6V332H142.9z M149.7,332h35.7v32.7h-35.7V332z
				 M185.5,325.2h-35.7v-34.6h35.7V325.2z M149.7,283.7v-31.1l35.7-6.3v37.5H149.7z M95.4,262.2v21.5h-37l-2.8-14.5L95.4,262.2z
				 M67.6,332h27.8v32.7H73.9L67.6,332z M235,283.7h-42.7v-38.7l55.2-9.8L235,283.7z"/>
		</g>
		<g>
			<path d="M449.5,420.5c-5.4,0-9.7,4.4-9.7,9.7c0,5.4,4.4,9.8,9.7,9.8c5.4,0,9.7-4.4,9.7-9.8C459.2,424.9,454.9,420.5,449.5,420.5z
				 M449.5,433.2c-1.6,0-2.9-1.3-2.9-2.9s1.3-2.9,2.9-2.9s2.9,1.3,2.9,2.9S451.1,433.2,449.5,433.2z"/>
			<path d="M535.3,420.5c-5.4,0-9.8,4.4-9.8,9.7c0,5.4,4.4,9.8,9.8,9.8c5.4,0,9.7-4.4,9.7-9.8C545,424.9,540.6,420.5,535.3,420.5z
				 M535.3,433.2c-1.6,0-2.9-1.3-2.9-2.9s1.3-2.9,2.9-2.9c1.6,0,2.9,1.3,2.9,2.9S536.9,433.2,535.3,433.2z"/>
			<path d="M657.9,194.9c-5.1,0-9.5,3.2-11.3,7.6l-33.9,5.9c-13.2,2.3-23.6,12.7-25.8,25.9l-3.5,20.2H374.6c-1.5,0-2.9,0.7-3.7,1.9
				c-0.9,1.2-1.1,2.8-0.6,4.2L412,375.5c0.7,1.8,2.4,3,4.3,3h145.9l-1.9,11.2c-1.2,6.9-7.2,12-14.2,12H416.3c-3.8,0-6.8,3.1-6.8,6.8
				s3.1,6.8,6.8,6.8h16.5c-3.5,4-5.7,9.1-5.7,14.8c0,12.3,10,22.4,22.4,22.4c12.3,0,22.4-10,22.4-22.4c0-5.7-2.2-10.9-5.7-14.8h52.5
				c-3.5,4-5.7,9.1-5.7,14.8c0,12.3,10,22.4,22.4,22.4c12.3,0,22.4-10,22.4-22.4c0-6-2.4-11.4-6.2-15.4
				c11.3-2.2,20.3-11.1,22.3-22.8l26.6-155.5c1.3-7.5,7.2-13.4,14.7-14.7l34.4-6c2.2,2.1,5.2,3.4,8.4,3.4c6.8,0,12.2-5.5,12.2-12.2
				C670.1,200.3,664.7,194.9,657.9,194.9z M449.5,443.5c-7.3,0-13.3-6-13.3-13.3c0-7.3,5.9-13.3,13.3-13.3c7.3,0,13.3,5.9,13.3,13.3
				C462.8,437.6,456.8,443.5,449.5,443.5z M535.3,443.5c-7.3,0-13.3-6-13.3-13.3c0-7.3,6-13.3,13.3-13.3c7.3,0,13.3,5.9,13.3,13.3
				C548.5,437.6,542.6,443.5,535.3,443.5z M581.9,263.6l-4.3,25.1H390.2l-9.1-25.1H581.9z M570.5,329.9H405.2l-11.7-32.1H576
				L570.5,329.9z M419.5,369.4l-11-30.3H569l-5.2,30.3H419.5z"/>
		</g>
		<g>
			<path d="M801.7,420.5c-5.4,0-9.7,4.4-9.7,9.7c0,5.4,4.4,9.8,9.7,9.8c5.4,0,9.7-4.4,9.7-9.8C811.5,424.9,807.1,420.5,801.7,420.5z
				 M801.7,433.2c-1.6,0-2.9-1.3-2.9-2.9s1.3-2.9,2.9-2.9c1.6,0,2.9,1.3,2.9,2.9S803.3,433.2,801.7,433.2z"/>
			<path d="M897.4,430.3c0,5.4,4.4,9.8,9.8,9.8c5.4,0,9.7-4.4,9.7-9.8c0-5.4-4.4-9.7-9.7-9.7C901.8,420.5,897.4,424.9,897.4,430.3z
				 M910,430.3c0,1.6-1.3,2.9-2.9,2.9c-1.6,0-2.9-1.3-2.9-2.9s1.3-2.9,2.9-2.9C908.7,427.4,910,428.7,910,430.3z"/>
			<path d="M1030.5,207.8c-4.5,0-8.5,2.5-10.6,6.2l-34,2.6c-2.5,0.2-4.8,1.8-5.8,4.1l-18.7,44H727.7l-4.5-8.1
				c-1.8-3.3-6-4.5-9.3-2.7c-3.3,1.8-4.5,6-2.7,9.3l80.6,146.1c0.1,0.3,0.3,0.5,0.5,0.7c-7.7,3.6-13,11.3-13,20.3
				c0,12.3,10,22.4,22.4,22.4c12.3,0,22.4-10,22.4-22.4c0-7.1-3.4-13.3-8.5-17.4h77.6c-5.1,4.1-8.5,10.3-8.5,17.4
				c0,12.3,10,22.4,22.4,22.4c12.3,0,22.4-10,22.4-22.4c0-9.6-6.2-17.8-14.7-20.9c0.1-0.2,0.3-0.4,0.4-0.6l76-178.7l29.8-2.3
				c2.2,2.8,5.6,4.6,9.5,4.6c6.8,0,12.2-5.5,12.2-12.2C1042.7,213.2,1037.2,207.8,1030.5,207.8z M943.3,307.5h-10.5v-33.6h24.8
				L943.3,307.5z M756.3,316.6h14.5v26.3L756.3,316.6z M780,316.6h26.8v36.9H780V316.6z M884.7,307.5h-29.9v-33.6h29.9V307.5z
				 M893.9,273.9h29.9v33.6h-29.9V273.9z M845.8,307.5h-29.9v-33.6h29.9V307.5z M806.8,307.5H780v-33.6h26.8V307.5z M815.9,316.6
				h29.9v36.9h-29.9V316.6z M845.8,362.6v36.6h-29.9v-36.6H845.8z M854.9,362.6h29.9v36.6h-29.9V362.6z M854.9,353.5v-36.9h29.9
				v36.9H854.9z M893.9,316.6h29.9v36.9h-29.9V316.6z M932.8,316.6h6.6l-6.6,15.5V316.6z M770.8,273.9v33.6h-19.6l-18.6-33.6H770.8z
				 M781.7,362.6h25.1v36.6h-4.9L781.7,362.6z M801.7,443.5c-7.3,0-13.3-6-13.3-13.3c0-7.3,5.9-13.3,13.3-13.3
				c7.3,0,13.3,5.9,13.3,13.3C815,437.6,809.1,443.5,801.7,443.5z M920.4,430.3c0,7.3-5.9,13.3-13.3,13.3c-7.3,0-13.3-6-13.3-13.3
				c0-7.3,6-13.3,13.3-13.3C914.4,417,920.4,422.9,920.4,430.3z M904.4,399.1h-10.5v-36.6h26L904.4,399.1z"/>
		</g>
		<g>
			<path d="M1133.5,420.5c-5.4,0-9.8,4.4-9.8,9.7c0,5.4,4.4,9.8,9.8,9.8c5.4,0,9.7-4.4,9.7-9.8
				C1143.3,424.9,1138.9,420.5,1133.5,420.5z M1133.5,433.2c-1.6,0-2.9-1.3-2.9-2.9s1.3-2.9,2.9-2.9c1.6,0,2.9,1.3,2.9,2.9
				S1135.1,433.2,1133.5,433.2z"/>
			<path d="M1274.1,420.5c-5.4,0-9.7,4.4-9.7,9.7c0,5.4,4.4,9.8,9.7,9.8s9.8-4.4,9.8-9.8C1283.8,424.9,1279.5,420.5,1274.1,420.5z
				 M1274.1,433.2c-1.6,0-2.9-1.3-2.9-2.9s1.3-2.9,2.9-2.9s2.9,1.3,2.9,2.9S1275.7,433.2,1274.1,433.2z"/>
			<path d="M1346.7,203.4c-6.8,0-12.2,5.5-12.2,12.2c0,0.5,0.1,1,0.1,1.4c-15.4,11-27.3,26.4-35.5,45.6h-203.6c-2.5,0-4.6,2-4.6,4.6
				v83.7c0,2.3,1.7,4.3,4,4.5l194.2,23.5c1.3,9.2,2.7,16.8,3.9,22.1h-189.9c-3.8,0-6.8,3.1-6.8,6.8s3.1,6.8,6.8,6.8h14.3
				c-3.8,4-6.2,9.4-6.2,15.4c0,12.3,10,22.4,22.4,22.4c12.3,0,22.4-10,22.4-22.4c0-6-2.4-11.4-6.2-15.4h108.3
				c-3.8,4-6.2,9.4-6.2,15.4c0,12.3,10,22.4,22.4,22.4c12.3,0,22.4-10,22.4-22.4c0-6-2.4-11.4-6.2-15.4h11.4c2.1,0,4.1-1,5.4-2.7
				c1.3-1.7,1.7-3.9,1.2-5.9c-0.3-1.3-33.7-129.8,34.6-178.3c0.2-0.2,0.5-0.4,0.7-0.6c1,0.3,2.1,0.5,3.2,0.5
				c6.8,0,12.2-5.5,12.2-12.2C1358.9,208.9,1353.4,203.4,1346.7,203.4z M1133.5,443.5c-7.3,0-13.3-6-13.3-13.3
				c0-7.3,5.9-13.3,13.3-13.3c7.3,0,13.3,5.9,13.3,13.3C1146.8,437.6,1140.9,443.5,1133.5,443.5z M1274.1,443.5
				c-7.3,0-13.3-6-13.3-13.3c0-7.3,5.9-13.3,13.3-13.3s13.3,5.9,13.3,13.3C1287.3,437.6,1281.4,443.5,1274.1,443.5z M1160.2,271.8
				h23.1V357l-23.1-2.8V271.8z M1151.1,353.1l-23.1-2.8v-78.5h23.1V353.1z M1192.5,271.8h23.1v89.1l-23.1-2.8V271.8z M1224.7,271.8
				h23.1v93l-23.1-2.8V271.8z M1100,271.8h18.8v77.3l-18.8-2.3V271.8z M1256.9,365.9v-94.1h38.7c-6.2,18.1-9.5,39.1-9.6,62.7
				c-0.1,12.6,0.8,24.6,1.9,35.1L1256.9,365.9z"/>
		</g>
		<g>
			<path d="M101.9,753c-5.4,0-9.7,4.4-9.7,9.7c0,5.4,4.4,9.8,9.7,9.8s9.7-4.4,9.7-9.8C111.6,757.4,107.3,753,101.9,753z
				 M101.9,765.6c-1.6,0-2.9-1.3-2.9-2.9c0-1.6,1.3-2.9,2.9-2.9c1.6,0,2.9,1.3,2.9,2.9C104.8,764.3,103.5,765.6,101.9,765.6z"/>
			<path d="M229.1,753c-5.4,0-9.7,4.4-9.7,9.7c0,5.4,4.4,9.8,9.7,9.8s9.7-4.4,9.7-9.8C238.9,757.4,234.5,753,229.1,753z
				 M229.1,765.6c-1.6,0-2.9-1.3-2.9-2.9c0-1.6,1.3-2.9,2.9-2.9c1.6,0,2.9,1.3,2.9,2.9C232,764.3,230.7,765.6,229.1,765.6z"/>
			<path d="M314.3,510.7c-6.3,0-11.4,4.7-12.1,10.8L256.6,541c-1.7,0.7-3,2.1-3.7,3.8l-2.7,7.1L49.3,574.6c-1-3.3-1.8-5.6-2.1-6.4
				c-1.5-3.4-5.4-5-8.9-3.6c-3.5,1.4-5.1,5.4-3.7,8.9c1.8,4.5,19,64.9,29.4,101.9c0.8,3,3.5,5,6.6,5c0,0,0,0,0.1,0l137.4-1.5
				l44.4,54.7h-188c-3.8,0-6.8,3.1-6.8,6.8s3.1,6.8,6.8,6.8h21.2c-3.8,4-6.2,9.4-6.2,15.4c0,12.3,10,22.4,22.4,22.4
				s22.4-10,22.4-22.4c0-6-2.4-11.4-6.2-15.4h94.8c-3.8,4-6.2,9.4-6.2,15.4c0,12.3,10,22.4,22.4,22.4s22.4-10,22.4-22.4
				c0-6-2.4-11.4-6.2-15.4h21.5c2.6,0,5-1.5,6.2-3.9c1.1-2.4,0.8-5.2-0.9-7.3l-53-65.4l45.5-118.4l43.7-18.6c0.1,0,0.2-0.1,0.2-0.1
				c1.7,0.9,3.6,1.5,5.7,1.5c6.8,0,12.2-5.5,12.2-12.2S321.1,510.7,314.3,510.7z M101.9,776c-7.3,0-13.3-6-13.3-13.3
				c0-7.3,5.9-13.3,13.3-13.3s13.3,5.9,13.3,13.3C115.2,770.1,109.2,776,101.9,776z M229.1,776c-7.3,0-13.3-6-13.3-13.3
				c0-7.3,5.9-13.3,13.3-13.3s13.3,5.9,13.3,13.3C242.4,770.1,236.5,776,229.1,776z M246.4,561.5L236,588.8L59.2,608.2
				c-2.6-9.2-5.1-17.9-7.2-24.8L246.4,561.5z M221.6,626.1l-153,15.6c-2.2-7.8-4.6-16.2-7-24.5l170.6-18.7L221.6,626.1z M71.2,650.6
				L218,635.6l-11.4,29.6l-130.8,1.4C74.6,662.5,73,656.9,71.2,650.6z"/>
		</g>
		<g>
			<path d="M434.5,753c-5.4,0-9.7,4.4-9.7,9.8s4.4,9.7,9.7,9.7c5.4,0,9.7-4.4,9.7-9.7S439.9,753,434.5,753z M434.5,765.6
				c-1.6,0-2.9-1.3-2.9-2.9s1.3-2.9,2.9-2.9c1.6,0,2.9,1.3,2.9,2.9S436.1,765.6,434.5,765.6z"/>
			<path d="M540.5,753c-5.4,0-9.7,4.4-9.7,9.8s4.4,9.7,9.7,9.7s9.7-4.4,9.7-9.7S545.9,753,540.5,753z M540.5,765.6
				c-1.6,0-2.9-1.3-2.9-2.9s1.3-2.9,2.9-2.9s2.9,1.3,2.9,2.9S542.1,765.6,540.5,765.6z"/>
			<path d="M668.3,531c-4.2,0-7.9,2.1-10.1,5.4H635c-2.9,0-5.5,1.9-6.5,4.6L602,619.3h-22l9-27.3c0.7-2.1,0.3-4.4-1-6.2
				c-1.3-1.8-3.4-2.8-5.5-2.8h-216c-2.2,0-4.3,1.1-5.5,2.8c-1.3,1.8-1.6,4.1-1,6.2l38.5,117.2c0.9,2.8,3.5,4.7,6.5,4.7h139
				c3,0,5.6-1.9,6.5-4.7l8.9-27.2h21.3l-17.2,50.6H402.9c-3.8,0-6.8,3.1-6.8,6.8s3.1,6.8,6.8,6.8h16.4c-4.4,4.1-7.3,9.9-7.3,16.4
				c0,12.3,10,22.4,22.4,22.4c12.3,0,22.4-10,22.4-22.4c0-6.5-2.8-12.3-7.3-16.4h75.8c-4.4,4.1-7.3,9.9-7.3,16.4
				c0,12.3,10,22.4,22.4,22.4s22.4-10,22.4-22.4c0-6.5-2.8-12.3-7.3-16.4h12.8c2.9,0,5.5-1.9,6.5-4.6l65-191.6h18.2
				c2.2,3.2,5.9,5.4,10.1,5.4c6.8,0,12.2-5.5,12.2-12.2C680.5,536.5,675.1,531,668.3,531z M434.5,776c-7.3,0-13.3-5.9-13.3-13.3
				s5.9-13.3,13.3-13.3c7.3,0,13.3,6,13.3,13.3S441.8,776,434.5,776z M540.5,776c-7.3,0-13.3-5.9-13.3-13.3s5.9-13.3,13.3-13.3
				s13.3,6,13.3,13.3S547.8,776,540.5,776z M477.9,700.3l32.2-103.5H537l-32.2,103.5H477.9z M441.4,700.3l32.2-103.5h26.9
				l-32.2,103.5H441.4z M388.6,635.4l12-38.6h26.9l-25.1,80.7L388.6,635.4z M391.1,596.8l-7.4,23.7l-7.8-23.7H391.1z M407.4,692.4
				l29.8-95.6h26.9l-32.2,103.5h-21.9L407.4,692.4z M539,700.3h-24.6l32.2-103.5H573L539,700.3z M562.4,672.9l14.6-44.5h21.9
				l-15.1,44.5H562.4z"/>
		</g>
		<g>
			<path d="M773.9,753c-5.4,0-9.7,4.4-9.7,9.8s4.4,9.7,9.7,9.7c5.4,0,9.8-4.4,9.8-9.7S779.3,753,773.9,753z M773.9,765.6
				c-1.6,0-2.9-1.3-2.9-2.9s1.3-2.9,2.9-2.9c1.6,0,2.9,1.3,2.9,2.9S775.5,765.6,773.9,765.6z"/>
			<path d="M920.6,753c-5.4,0-9.7,4.4-9.7,9.8s4.4,9.7,9.7,9.7s9.7-4.4,9.7-9.7S926,753,920.6,753z M920.6,765.6
				c-1.6,0-2.9-1.3-2.9-2.9s1.3-2.9,2.9-2.9s2.9,1.3,2.9,2.9S922.2,765.6,920.6,765.6z"/>
			<path d="M1011.7,512.7c-4.6,0-8.6,2.6-10.7,6.4l-36,8c-3.1,0.7-5.4,3.5-5.4,6.7v80.3h-14.3v-22.2c0-3.8-3.1-6.8-6.8-6.8H739.7
				c-3.8,0-6.8,3.1-6.8,6.8v117.2c0,3.8,3.1,6.8,6.8,6.8h198.7c3.8,0,6.8-3.1,6.8-6.8v-30.6h14.3v55H736c-3.8,0-6.8,3.1-6.8,6.8
				s3.1,6.8,6.8,6.8h21.9c-3.9,4-6.3,9.5-6.3,15.5c0,12.3,10,22.4,22.4,22.4c12.3,0,22.4-10,22.4-22.4c0-6-2.4-11.5-6.3-15.5h114.5
				c-3.9,4-6.3,9.5-6.3,15.5c0,12.3,10,22.4,22.4,22.4s22.4-10,22.4-22.4c0-6-2.4-11.5-6.3-15.5h29.7c3.8,0,6.8-3.1,6.8-6.8V539.3
				l29.2-6.5c2.2,2.6,5.5,4.3,9.2,4.3c6.8,0,12.2-5.5,12.2-12.2C1023.9,518.1,1018.4,512.7,1011.7,512.7z M773.9,776
				c-7.3,0-13.3-5.9-13.3-13.3s5.9-13.3,13.3-13.3c7.3,0,13.3,6,13.3,13.3S781.3,776,773.9,776z M920.6,776
				c-7.3,0-13.3-5.9-13.3-13.3s5.9-13.3,13.3-13.3s13.3,6,13.3,13.3S927.9,776,920.6,776z M790,598.7h12.3v103.5H790V598.7z
				 M780.9,702.3h-12.3V598.7h12.3V702.3z M811.5,598.7h12.3v103.5h-12.3V598.7z M832.9,598.7h12.3v103.5h-12.3V598.7z M854.4,598.7
				h12.3v103.5h-12.3V598.7z M875.8,598.7h12.3v103.5h-12.3V598.7z M897.3,598.7h12.3v103.5h-12.3V598.7z M746.6,598.7h12.8v103.5
				h-12.8V598.7z M931.6,702.3h-12.8V598.7h12.8V702.3z M945.3,669.4v-46.1h14.3v46.1H945.3z"/>
		</g>
		<g>
			<path d="M1117.8,753c-5.4,0-9.8,4.4-9.8,9.8s4.4,9.7,9.8,9.7s9.7-4.4,9.7-9.7S1123.2,753,1117.8,753z M1117.8,765.6
				c-1.6,0-2.9-1.3-2.9-2.9s1.3-2.9,2.9-2.9s2.9,1.3,2.9,2.9S1119.4,765.6,1117.8,765.6z"/>
			<path d="M1265.8,753c-5.4,0-9.7,4.4-9.7,9.8s4.4,9.7,9.7,9.7c5.4,0,9.7-4.4,9.7-9.7S1271.2,753,1265.8,753z M1265.8,765.6
				c-1.6,0-2.9-1.3-2.9-2.9s1.3-2.9,2.9-2.9c1.6,0,2.9,1.3,2.9,2.9S1267.4,765.6,1265.8,765.6z"/>
			<path d="M1353.7,512.2c-4.4,0-8.2,2.3-10.3,5.8l-42.1,2.8c-2.9,0.2-5.4,2.2-6.2,5.1l-9.8,36.7l-187.6,38.3v-5
				c0-3.8-3.1-6.8-6.8-6.8c-3.8,0-6.8,3.1-6.8,6.8v67.4c0,3.4,2.4,6.2,5.8,6.8l165.2,26.6l10.2,9.6c7.4,7.1,8.8,18.4,3.7,27h-178
				c-3.8,0-6.8,3.1-6.8,6.8s3.1,6.8,6.8,6.8h11.3c-4.1,4.1-6.6,9.7-6.6,15.8c0,12.3,10,22.4,22.4,22.4s22.4-10,22.4-22.4
				c0-6.2-2.5-11.8-6.6-15.8H1250c-4.1,4.1-6.6,9.7-6.6,15.8c0,12.3,10,22.4,22.4,22.4c12.3,0,22.4-10,22.4-22.4
				c0-7.9-4.1-14.8-10.3-18.8c11.2-14.3,9.7-35.2-3.5-47.7l-8.7-8.3l41.3-153.9l36.9-2.5c2.2,3,5.8,5,9.8,5
				c6.8,0,12.2-5.5,12.2-12.2C1365.9,517.7,1360.4,512.2,1353.7,512.2z M1117.8,776c-7.3,0-13.3-5.9-13.3-13.3s5.9-13.3,13.3-13.3
				s13.3,6,13.3,13.3S1125.2,776,1117.8,776z M1265.8,776c-7.3,0-13.3-5.9-13.3-13.3s5.9-13.3,13.3-13.3s13.3,6,13.3,13.3
				S1273.1,776,1265.8,776z M1263.6,642.9l-13.8-0.4v-26.8l21.6-1.9L1263.6,642.9z M1253,682.4l-3.2-0.5v-30.2l11.3,0.3L1253,682.4z
				 M1097.6,628.9l22.7-2v12.2l-22.7-0.6V628.9z M1129.5,626.1l28.6-2.5v16.5l-28.6-0.7V626.1z M1208.5,619.3l32.2-2.8v25.8
				l-32.2-0.8V619.3z M1199.4,641.2l-32.2-0.8v-17.5l32.2-2.8V641.2z M1208.5,610.1v-22.6l32.2-6.6v26.4L1208.5,610.1z
				 M1199.4,610.9l-32.2,2.8v-17.8l32.2-6.6V610.9z M1158,614.5l-28.6,2.5v-13.3l28.6-5.8V614.5z M1158,649.3v17.8l-28.6-4.6v-13.9
				L1158,649.3z M1167.1,649.5l32.2,0.8v23.4l-32.2-5.2V649.5z M1208.5,650.6l32.2,0.8v29l-32.2-5.2V650.6z M1274,604.4l-24.1,2.1
				V579l32.7-6.7L1274,604.4z M1120.3,605.5v12.3l-22.7,2v-9.6L1120.3,605.5z M1097.6,647.7l22.7,0.6V661l-22.7-3.7V647.7z"/>
		</g>
	</g>
</g>
</svg>
